<?xml version="1.0" standalone="no"?>
<!DOCTYPE svg PUBLIC "-//W3C//DTD SVG 20010904//EN"
 "http://www.w3.org/TR/2001/REC-SVG-20010904/DTD/svg10.dtd">
<svg version="1.0" xmlns="http://www.w3.org/2000/svg"
 width="1069.000000pt" height="1280.000000pt" viewBox="0 0 1069.000000 1280.000000"
 preserveAspectRatio="xMidYMid meet">
<metadata>
Created by potrace 1.15, written by Peter Selinger 2001-2017
</metadata>
<g transform="translate(0.000000,1280.000000) scale(0.100000,-0.100000)"
fill="#000000" stroke="none">
<path d="M2784 10009 l-2559 -2559 1573 0 1572 0 0 -169 0 -170 43 -6 c23 -3
917 -4 1987 -3 l1945 3 0 173 0 172 1553 0 c853 0 1552 3 1552 7 0 7 -5032
5048 -5081 5090 l-25 22 -2560 -2560z"/>
<path d="M3370 6825 l0 -255 1988 2 1987 3 3 190 c2 105 0 218 -3 253 l-7 62
-1984 0 -1984 0 0 -255z"/>
<path d="M3370 6280 l0 -230 1988 2 1987 3 3 175 c2 96 0 199 -3 228 l-6 52
-1985 0 -1984 0 0 -230z"/>
<path d="M3370 5735 l0 -215 1990 0 1990 0 0 169 c0 92 -3 189 -6 215 l-7 46
-1983 0 -1984 0 0 -215z"/>
<path d="M3370 5191 l0 -200 53 -6 c28 -3 923 -5 1987 -3 l1935 3 3 140 c2 77
0 168 -3 203 l-7 62 -1984 0 -1984 0 0 -199z"/>
<path d="M3372 4643 l3 -178 1985 0 1985 0 3 125 c2 69 0 149 -3 178 l-6 52
-1985 0 -1984 0 2 -177z"/>
<path d="M3370 4095 l0 -165 1988 2 1987 3 3 100 c2 55 0 128 -3 163 l-7 62
-1984 0 -1984 0 0 -165z"/>
<path d="M3370 3550 l0 -150 1990 0 1990 0 0 104 c0 57 -3 124 -6 150 l-7 46
-1983 0 -1984 0 0 -150z"/>
<path d="M3377 3133 c-4 -3 -7 -62 -7 -130 l0 -123 1990 0 1990 0 0 84 c0 46
-3 104 -6 130 l-7 46 -1977 0 c-1087 0 -1980 -3 -1983 -7z"/>
<path d="M3370 2461 l0 -110 43 -6 c23 -3 917 -4 1987 -3 l1945 3 3 60 c2 33
1 84 -3 113 l-6 52 -1985 0 -1984 0 0 -109z"/>
<path d="M3370 1910 l0 -100 1988 2 1987 3 3 35 c2 19 1 63 -3 98 l-7 62
-1984 0 -1984 0 0 -100z"/>
<path d="M3370 1370 l0 -80 1985 0 c1767 0 1986 2 1991 15 4 9 3 45 -1 80 l-7
65 -1984 0 -1984 0 0 -80z"/>
<path d="M3370 820 l0 -60 1990 0 1990 0 0 23 c0 12 -3 39 -6 60 l-7 37 -1983
0 -1984 0 0 -60z"/>
<path d="M3370 276 l0 -43 46 -7 c69 -9 3922 -7 3928 2 2 4 2 27 -1 50 l-6 42
-1983 0 -1984 0 0 -44z"/>
</g>
</svg>
